STARTFONT 2.2
COMMENT ======================================================================
COMMENT Copyright (C) 1993-2024 Darren Embry
COMMENT 
COMMENT Distributed under the terms of the SIL Open Font License 1.1
COMMENT (SIL OFL-1.1) https://opensource.org/license/ofl-1-1/
COMMENT ======================================================================
FONT -dse-cantontypewriter-medium-r-normal--18-130-100-100-c-72-iso10646-1
SIZE 13 100 100
FONTBOUNDINGBOX 10 18 0 -4
DWIDTH 10 0
STARTPROPERTIES 18
FOUNDRY "dse"
FAMILY_NAME "cantontypewriter"
WEIGHT_NAME "medium"
SLANT "r"
SETWIDTH_NAME "normal"
ADD_STYLE_NAME ""
PIXEL_SIZE 18
POINT_SIZE 130
RESOLUTION_X 100
RESOLUTION_Y 100
SPACING "c"
AVERAGE_WIDTH 72
CHARSET_REGISTRY "iso10646"
CHARSET_ENCODING "1"
FONT_ASCENT 14
FONT_DESCENT 4
DEFAULT_CHAR 32
COPYRIGHT "Copyright (C) 1993-2024 Darren Embry"
ENDPROPERTIES
CHARS 239
STARTCHAR SF040000
ENCODING 9496
BBX 10 18 0 -4
SWIDTH 556 0
DWIDTH 10 0
BITMAP
|    #     |
|    #     |
|    #     |
|    #     |
|    #     |
|    #     |
|    #     |
|    #     |
|    #     |
|#####     |
|          |
|          |
|          |
+          +
|          |
|          |
|          |
|          |
ENDCHAR
STARTCHAR SF030000
ENCODING 9488
BBX 10 18 0 -4
SWIDTH 556 0
DWIDTH 10 0
BITMAP
|          |
|          |
|          |
|          |
|          |
|          |
|          |
|          |
|          |
|#####     |
|    #     |
|    #     |
|    #     |
+    #     +
|    #     |
|    #     |
|    #     |
|    #     |
ENDCHAR
STARTCHAR SF010000
ENCODING 9484
BBX 10 18 0 -4
SWIDTH 556 0
DWIDTH 10 0
BITMAP
|          |
|          |
|          |
|          |
|          |
|          |
|          |
|          |
|          |
|    ######|
|    #     |
|    #     |
|    #     |
+    #     +
|    #     |
|    #     |
|    #     |
|    #     |
ENDCHAR
STARTCHAR SF020000
ENCODING 9492
BBX 10 18 0 -4
SWIDTH 556 0
DWIDTH 10 0
BITMAP
|    #     |
|    #     |
|    #     |
|    #     |
|    #     |
|    #     |
|    #     |
|    #     |
|    #     |
|    ######|
|          |
|          |
|          |
+          +
|          |
|          |
|          |
|          |
ENDCHAR
STARTCHAR SF050000
ENCODING 9532
BBX 10 18 0 -4
SWIDTH 556 0
DWIDTH 10 0
BITMAP
|    #     |
|    #     |
|    #     |
|    #     |
|    #     |
|    #     |
|    #     |
|    #     |
|    #     |
|##########|
|    #     |
|    #     |
|    #     |
+    #     +
|    #     |
|    #     |
|    #     |
|    #     |
ENDCHAR
STARTCHAR uniE000
ENCODING 57344
BBX 10 18 0 -4
SWIDTH 556 0
DWIDTH 10 0
BITMAP
|          |
|##########|
|          |
|          |
|          |
|          |
|          |
|          |
|          |
|          |
|          |
|          |
|          |
+          +
|          |
|          |
|          |
|          |
ENDCHAR
STARTCHAR uniE001
ENCODING 57345
BBX 10 18 0 -4
SWIDTH 556 0
DWIDTH 10 0
BITMAP
|          |
|          |
|          |
|          |
|          |
|##########|
|          |
|          |
|          |
|          |
|          |
|          |
|          |
+          +
|          |
|          |
|          |
|          |
ENDCHAR
STARTCHAR SF100000
ENCODING 9472
BBX 10 18 0 -4
SWIDTH 556 0
DWIDTH 10 0
BITMAP
|          |
|          |
|          |
|          |
|          |
|          |
|          |
|          |
|          |
|##########|
|          |
|          |
|          |
+          +
|          |
|          |
|          |
|          |
ENDCHAR
STARTCHAR uniE002
ENCODING 57346
BBX 10 18 0 -4
SWIDTH 556 0
DWIDTH 10 0
BITMAP
|          |
|          |
|          |
|          |
|          |
|          |
|          |
|          |
|          |
|          |
|          |
|          |
|          |
+##########+
|          |
|          |
|          |
|          |
ENDCHAR
STARTCHAR uniE003
ENCODING 57347
BBX 10 18 0 -4
SWIDTH 556 0
DWIDTH 10 0
BITMAP
|          |
|          |
|          |
|          |
|          |
|          |
|          |
|          |
|          |
|          |
|          |
|          |
|          |
+          +
|          |
|          |
|          |
|##########|
ENDCHAR
STARTCHAR SF080000
ENCODING 9500
BBX 10 18 0 -4
SWIDTH 556 0
DWIDTH 10 0
BITMAP
|    #     |
|    #     |
|    #     |
|    #     |
|    #     |
|    #     |
|    #     |
|    #     |
|    #     |
|    ######|
|    #     |
|    #     |
|    #     |
+    #     +
|    #     |
|    #     |
|    #     |
|    #     |
ENDCHAR
STARTCHAR SF090000
ENCODING 9508
BBX 10 18 0 -4
SWIDTH 556 0
DWIDTH 10 0
BITMAP
|    #     |
|    #     |
|    #     |
|    #     |
|    #     |
|    #     |
|    #     |
|    #     |
|    #     |
|#####     |
|    #     |
|    #     |
|    #     |
+    #     +
|    #     |
|    #     |
|    #     |
|    #     |
ENDCHAR
STARTCHAR SF070000
ENCODING 9524
BBX 10 18 0 -4
SWIDTH 556 0
DWIDTH 10 0
BITMAP
|    #     |
|    #     |
|    #     |
|    #     |
|    #     |
|    #     |
|    #     |
|    #     |
|    #     |
|##########|
|          |
|          |
|          |
+          +
|          |
|          |
|          |
|          |
ENDCHAR
STARTCHAR SF060000
ENCODING 9516
BBX 10 18 0 -4
SWIDTH 556 0
DWIDTH 10 0
BITMAP
|          |
|          |
|          |
|          |
|          |
|          |
|          |
|          |
|          |
|##########|
|    #     |
|    #     |
|    #     |
+    #     +
|    #     |
|    #     |
|    #     |
|    #     |
ENDCHAR
STARTCHAR SF110000
ENCODING 9474
BBX 10 18 0 -4
SWIDTH 556 0
DWIDTH 10 0
BITMAP
|    #     |
|    #     |
|    #     |
|    #     |
|    #     |
|    #     |
|    #     |
|    #     |
|    #     |
|    #     |
|    #     |
|    #     |
|    #     |
+    #     +
|    #     |
|    #     |
|    #     |
|    #     |
ENDCHAR
STARTCHAR space
ENCODING 32
BBX 10 18 0 -4
SWIDTH 556 0
DWIDTH 10 0
BITMAP
|          |
|          |
|          |
|          |
|          |
|          |
|          |
|          |
|          |
|          |
|          |
|          |
|          |
+          +
|          |
|          |
|          |
|          |
ENDCHAR
STARTCHAR exclam
ENCODING 33
BBX 10 18 0 -4
SWIDTH 556 0
DWIDTH 10 0
BITMAP
|          |
|          |
|          |
|    #     |
|   ###    |
|   ###    |
|   ###    |
|    #     |
|    #     |
|          |
|          |
|    #     |
|   ###    |
+    #     +
|          |
|          |
|          |
|          |
ENDCHAR
STARTCHAR quotedbl
ENCODING 34
BBX 10 18 0 -4
SWIDTH 556 0
DWIDTH 10 0
BITMAP
|          |
|          |
|          |
|  #   #   |
| ### ###  |
| ### ###  |
|  #   #   |
|  #   #   |
|          |
|          |
|          |
|          |
|          |
+          +
|          |
|          |
|          |
|          |
ENDCHAR
STARTCHAR numbersign
ENCODING 35
BBX 10 18 0 -4
SWIDTH 556 0
DWIDTH 10 0
BITMAP
|          |
|          |
|          |
|     #  # |
|     #  # |
|    #  #  |
|    #  #  |
|   #  #   |
|######### |
|   #  #   |
|  #  #    |
|######### |
|  #  #    |
+ #  #     +
| #  #     |
|#  #      |
|#  #      |
|          |
ENDCHAR
STARTCHAR dollar
ENCODING 36
BBX 10 18 0 -4
SWIDTH 556 0
DWIDTH 10 0
BITMAP
|          |
|          |
|    #     |
|    #     |
|   ####   |
|  # # ##  |
| #  #  #  |
| ## #     |
|  #####   |
|    # ##  |
|    #  #  |
| #  #  #  |
| ## # #   |
+  ####    +
|    #     |
|    #     |
|          |
|          |
ENDCHAR
STARTCHAR percent
ENCODING 37
BBX 10 18 0 -4
SWIDTH 556 0
DWIDTH 10 0
BITMAP
|          |
|          |
|          |
|          |
|  ##   #  |
| # ## #   |
|#   # #   |
|## # #    |
| ## #     |
|    # ##  |
|   # # ## |
|  # #   # |
|  # ## #  |
+ #   ##   +
|          |
|          |
|          |
|          |
ENDCHAR
STARTCHAR ampersand
ENCODING 38
BBX 10 18 0 -4
SWIDTH 556 0
DWIDTH 10 0
BITMAP
|          |
|          |
|          |
|          |
|   ##     |
|  # ##    |
| #   #    |
| ## #     |
|  ##   ## |
| # ##  #  |
|#   # #   |
|#   ##    |
|## # ## # |
+ ##   ##  +
|          |
|          |
|          |
|          |
ENDCHAR
STARTCHAR quotesingle
ENCODING 39
BBX 10 18 0 -4
SWIDTH 556 0
DWIDTH 10 0
BITMAP
|          |
|          |
|          |
|    #     |
|   ###    |
|   ###    |
|    #     |
|    #     |
|          |
|          |
|          |
|          |
|          |
+          +
|          |
|          |
|          |
|          |
ENDCHAR
STARTCHAR parenleft
ENCODING 40
BBX 10 18 0 -4
SWIDTH 556 0
DWIDTH 10 0
BITMAP
|          |
|          |
|          |
|      #   |
|     #    |
|    #     |
|    #     |
|   #      |
|   #      |
|   #      |
|   #      |
|   #      |
|   ##     |
+    #     +
|    ##    |
|     ###  |
|      #   |
|          |
ENDCHAR
STARTCHAR parenright
ENCODING 41
BBX 10 18 0 -4
SWIDTH 556 0
DWIDTH 10 0
BITMAP
|          |
|          |
|          |
|  #       |
| ###      |
|   ##     |
|    #     |
|    ##    |
|     #    |
|     #    |
|     #    |
|     #    |
|     #    |
+    #     +
|    #     |
|   #      |
|  #       |
|          |
ENDCHAR
STARTCHAR asterisk
ENCODING 42
BBX 10 18 0 -4
SWIDTH 556 0
DWIDTH 10 0
BITMAP
|          |
|          |
|          |
|    #     |
| #  #  #  |
| ## # ##  |
|   ###    |
|   ###    |
| ## # ##  |
| #  #  #  |
|    #     |
|          |
|          |
+          +
|          |
|          |
|          |
|          |
ENDCHAR
STARTCHAR plus
ENCODING 43
BBX 10 18 0 -4
SWIDTH 556 0
DWIDTH 10 0
BITMAP
|          |
|          |
|          |
|          |
|          |
|          |
|    #     |
|    #     |
|    #     |
| #######  |
|    #     |
|    #     |
|    #     |
+          +
|          |
|          |
|          |
|          |
ENDCHAR
STARTCHAR comma
ENCODING 44
BBX 10 18 0 -4
SWIDTH 556 0
DWIDTH 10 0
BITMAP
|          |
|          |
|          |
|          |
|          |
|          |
|          |
|          |
|          |
|          |
|          |
|    #     |
|   ###    |
+    ##    +
|    #     |
|   #      |
|  #       |
|          |
ENDCHAR
STARTCHAR hyphen
ENCODING 45
BBX 10 18 0 -4
SWIDTH 556 0
DWIDTH 10 0
BITMAP
|          |
|          |
|          |
|          |
|          |
|          |
|          |
|          |
|          |
| #######  |
|          |
|          |
|          |
+          +
|          |
|          |
|          |
|          |
ENDCHAR
STARTCHAR period
ENCODING 46
BBX 10 18 0 -4
SWIDTH 556 0
DWIDTH 10 0
BITMAP
|          |
|          |
|          |
|          |
|          |
|          |
|          |
|          |
|          |
|          |
|          |
|    #     |
|   ###    |
+    #     +
|          |
|          |
|          |
|          |
ENDCHAR
STARTCHAR slash
ENCODING 47
BBX 10 18 0 -4
SWIDTH 556 0
DWIDTH 10 0
BITMAP
|          |
|          |
|          |
|       #  |
|       #  |
|      #   |
|      #   |
|     #    |
|     #    |
|    #     |
|    #     |
|   #      |
|   #      |
+  #       +
|  #       |
| #        |
| #        |
|          |
ENDCHAR
STARTCHAR zero
ENCODING 48
BBX 10 18 0 -4
SWIDTH 556 0
DWIDTH 10 0
BITMAP
|          |
|          |
|          |
|          |
|   ###    |
|  #  ##   |
|  #   ##  |
| #     #  |
| #  #  #  |
| #  #  #  |
| #     #  |
| ##   #   |
|  ##  #   |
+   ###    +
|          |
|          |
|          |
|          |
ENDCHAR
STARTCHAR one
ENCODING 49
BBX 10 18 0 -4
SWIDTH 556 0
DWIDTH 10 0
BITMAP
|          |
|          |
|          |
|          |
|    #     |
|   ##     |
| ## #     |
|    #     |
|    #     |
|    #     |
|    #     |
|    #     |
|    #     |
+ #######  +
|          |
|          |
|          |
|          |
ENDCHAR
STARTCHAR two
ENCODING 50
BBX 10 18 0 -4
SWIDTH 556 0
DWIDTH 10 0
BITMAP
|          |
|          |
|          |
|          |
|   ####   |
|  #   ##  |
| #     #  |
|       #  |
|      #   |
|     #    |
|    #     |
|   #      |
|  #    #  |
+ #######  +
|          |
|          |
|          |
|          |
ENDCHAR
STARTCHAR three
ENCODING 51
BBX 10 18 0 -4
SWIDTH 556 0
DWIDTH 10 0
BITMAP
|          |
|          |
|          |
|          |
|   ####   |
|  #   ##  |
| #     #  |
|      #   |
|    ###   |
|      ##  |
|       #  |
| #     #  |
| ##   #   |
+  ####    +
|          |
|          |
|          |
|          |
ENDCHAR
STARTCHAR four
ENCODING 52
BBX 10 18 0 -4
SWIDTH 556 0
DWIDTH 10 0
BITMAP
|          |
|          |
|          |
|          |
|       #  |
|      #   |
|     #    |
|    #     |
|   #  #   |
|  #   #   |
| #######  |
|      #   |
|      #   |
+     ###  +
|          |
|          |
|          |
|          |
ENDCHAR
STARTCHAR five
ENCODING 53
BBX 10 18 0 -4
SWIDTH 556 0
DWIDTH 10 0
BITMAP
|          |
|          |
|          |
|          |
|  ######  |
|  #       |
|  #       |
|  #       |
|  #####   |
|      ##  |
|       #  |
| #     #  |
| ##   #   |
+  ####    +
|          |
|          |
|          |
|          |
ENDCHAR
STARTCHAR six
ENCODING 54
BBX 10 18 0 -4
SWIDTH 556 0
DWIDTH 10 0
BITMAP
|          |
|          |
|          |
|          |
|     ##   |
|   ##     |
|  #       |
|  #       |
| #  ###   |
| # #  ##  |
| ##    #  |
| #     #  |
| ##   #   |
+  ####    +
|          |
|          |
|          |
|          |
ENDCHAR
STARTCHAR seven
ENCODING 55
BBX 10 18 0 -4
SWIDTH 556 0
DWIDTH 10 0
BITMAP
|          |
|          |
|          |
|          |
| #######  |
| #     #  |
| #    #   |
|     #    |
|     #    |
|    #     |
|   #      |
|   #      |
|  #       |
+  #       +
|          |
|          |
|          |
|          |
ENDCHAR
STARTCHAR eight
ENCODING 56
BBX 10 18 0 -4
SWIDTH 556 0
DWIDTH 10 0
BITMAP
|          |
|          |
|          |
|          |
|   ####   |
|  #   ##  |
| #     #  |
| ##   #   |
|   ###    |
|  #   ##  |
| #     #  |
| #     #  |
| ##   #   |
+  ####    +
|          |
|          |
|          |
|          |
ENDCHAR
STARTCHAR nine
ENCODING 57
BBX 10 18 0 -4
SWIDTH 556 0
DWIDTH 10 0
BITMAP
|          |
|          |
|          |
|          |
|   ####   |
|  #   ##  |
| #     #  |
| #    ##  |
| ##  # #  |
|  ###  #  |
|      #   |
|      #   |
|    ##    |
+  ##      +
|          |
|          |
|          |
|          |
ENDCHAR
STARTCHAR colon
ENCODING 58
BBX 10 18 0 -4
SWIDTH 556 0
DWIDTH 10 0
BITMAP
|          |
|          |
|          |
|          |
|          |
|          |
|    #     |
|   ###    |
|    #     |
|          |
|          |
|    #     |
|   ###    |
+    #     +
|          |
|          |
|          |
|          |
ENDCHAR
STARTCHAR semicolon
ENCODING 59
BBX 10 18 0 -4
SWIDTH 556 0
DWIDTH 10 0
BITMAP
|          |
|          |
|          |
|          |
|          |
|          |
|    #     |
|   ###    |
|    #     |
|          |
|          |
|    #     |
|   ###    |
+    ##    +
|    #     |
|   #      |
|  #       |
|          |
ENDCHAR
STARTCHAR less
ENCODING 60
BBX 10 18 0 -4
SWIDTH 556 0
DWIDTH 10 0
BITMAP
|          |
|          |
|          |
|          |
|          |
|       #  |
|     ##   |
|    #     |
|  ##      |
| #        |
|  ##      |
|    #     |
|     ##   |
+       #  +
|          |
|          |
|          |
|          |
ENDCHAR
STARTCHAR equal
ENCODING 61
BBX 10 18 0 -4
SWIDTH 556 0
DWIDTH 10 0
BITMAP
|          |
|          |
|          |
|          |
|          |
|          |
|          |
|          |
| #######  |
|          |
|          |
| #######  |
|          |
+          +
|          |
|          |
|          |
|          |
ENDCHAR
STARTCHAR greater
ENCODING 62
BBX 10 18 0 -4
SWIDTH 556 0
DWIDTH 10 0
BITMAP
|          |
|          |
|          |
|          |
|          |
| #        |
|  ##      |
|    #     |
|     ##   |
|       #  |
|     ##   |
|    #     |
|  ##      |
+ #        +
|          |
|          |
|          |
|          |
ENDCHAR
STARTCHAR question
ENCODING 63
BBX 10 18 0 -4
SWIDTH 556 0
DWIDTH 10 0
BITMAP
|          |
|          |
|          |
|          |
|   ####   |
|  #   ##  |
| #     #  |
|      #   |
|     #    |
|    #     |
|          |
|    #     |
|   ###    |
+    #     +
|          |
|          |
|          |
|          |
ENDCHAR
STARTCHAR at
ENCODING 64
BBX 10 18 0 -4
SWIDTH 556 0
DWIDTH 10 0
BITMAP
|          |
|          |
|          |
|          |
|   #####  |
| ##    ## |
| #   #  # |
|#   # # # |
|#  #  # # |
|#  #  # # |
|#  ## ##  |
|##  ###   |
| ##       |
+  #####   +
|          |
|          |
|          |
|          |
ENDCHAR
STARTCHAR A
ENCODING 65
BBX 10 18 0 -4
SWIDTH 556 0
DWIDTH 10 0
BITMAP
|          |
|          |
|          |
|          |
|    #     |
|    #     |
|   ###    |
|   # #    |
|   # #    |
|  #   #   |
|  #####   |
| #    ##  |
| #     #  |
+###   ### +
|          |
|          |
|          |
|          |
ENDCHAR
STARTCHAR B
ENCODING 66
BBX 10 18 0 -4
SWIDTH 556 0
DWIDTH 10 0
BITMAP
|          |
|          |
|          |
|          |
|######    |
|  #  ##   |
|  #   #   |
|  #  #    |
|  #####   |
|  #   ##  |
|  #    #  |
|  #    #  |
|  #   #   |
+######    +
|          |
|          |
|          |
|          |
ENDCHAR
STARTCHAR C
ENCODING 67
BBX 10 18 0 -4
SWIDTH 556 0
DWIDTH 10 0
BITMAP
|          |
|          |
|          |
|          |
|    ## #  |
|  ##  ##  |
|  #    #  |
| #     #  |
| #        |
| #        |
| #        |
| ##    #  |
|  ##  #   |
+   ###    +
|          |
|          |
|          |
|          |
ENDCHAR
STARTCHAR D
ENCODING 68
BBX 10 18 0 -4
SWIDTH 556 0
DWIDTH 10 0
BITMAP
|          |
|          |
|          |
|          |
|######    |
|  #  ##   |
|  #   ##  |
|  #    #  |
|  #    #  |
|  #    #  |
|  #    #  |
|  #   #   |
|  #  ##   |
+#####     +
|          |
|          |
|          |
|          |
ENDCHAR
STARTCHAR E
ENCODING 69
BBX 10 18 0 -4
SWIDTH 556 0
DWIDTH 10 0
BITMAP
|          |
|          |
|          |
|          |
|########  |
|  #    #  |
|  #    #  |
|  #  #    |
|  ####    |
|  #  #    |
|  #       |
|  #    #  |
|  #    #  |
+########  +
|          |
|          |
|          |
|          |
ENDCHAR
STARTCHAR F
ENCODING 70
BBX 10 18 0 -4
SWIDTH 556 0
DWIDTH 10 0
BITMAP
|          |
|          |
|          |
|          |
|########  |
|  #    #  |
|  #    #  |
|  #       |
|  #  #    |
|  ####    |
|  #  #    |
|  #       |
|  #       |
+#####     +
|          |
|          |
|          |
|          |
ENDCHAR
STARTCHAR G
ENCODING 71
BBX 10 18 0 -4
SWIDTH 556 0
DWIDTH 10 0
BITMAP
|          |
|          |
|          |
|          |
|    ## #  |
|  ##  ##  |
|  #    #  |
| #        |
| #        |
| #   #### |
| #     #  |
| ##    #  |
|  ##  ##  |
+   ### #  +
|          |
|          |
|          |
|          |
ENDCHAR
STARTCHAR H
ENCODING 72
BBX 10 18 0 -4
SWIDTH 556 0
DWIDTH 10 0
BITMAP
|          |
|          |
|          |
|          |
|###   ### |
| #     #  |
| #     #  |
| #     #  |
| #######  |
| #     #  |
| #     #  |
| #     #  |
| #     #  |
+###   ### +
|          |
|          |
|          |
|          |
ENDCHAR
STARTCHAR I
ENCODING 73
BBX 10 18 0 -4
SWIDTH 556 0
DWIDTH 10 0
BITMAP
|          |
|          |
|          |
|          |
|  #####   |
|    #     |
|    #     |
|    #     |
|    #     |
|    #     |
|    #     |
|    #     |
|    #     |
+  #####   +
|          |
|          |
|          |
|          |
ENDCHAR
STARTCHAR J
ENCODING 74
BBX 10 18 0 -4
SWIDTH 556 0
DWIDTH 10 0
BITMAP
|          |
|          |
|          |
|          |
|  #####   |
|    #     |
|    #     |
|    #     |
|    #     |
|    #     |
|    #     |
|    #     |
|   #      |
+   #      +
|   #      |
|  #       |
| #        |
|#         |
ENDCHAR
STARTCHAR K
ENCODING 75
BBX 10 18 0 -4
SWIDTH 556 0
DWIDTH 10 0
BITMAP
|          |
|          |
|          |
|          |
|###   ### |
| #    #   |
| #   #    |
| #  #     |
| # ##     |
| ##  #    |
| #   #    |
| #    #   |
| #     #  |
+###   ### +
|          |
|          |
|          |
|          |
ENDCHAR
STARTCHAR L
ENCODING 76
BBX 10 18 0 -4
SWIDTH 556 0
DWIDTH 10 0
BITMAP
|          |
|          |
|          |
|          |
|#####     |
|  #       |
|  #       |
|  #       |
|  #       |
|  #       |
|  #       |
|  #    #  |
|  #    #  |
+########  +
|          |
|          |
|          |
|          |
ENDCHAR
STARTCHAR M
ENCODING 77
BBX 10 18 0 -4
SWIDTH 556 0
DWIDTH 10 0
BITMAP
|          |
|          |
|          |
|          |
|##     ## |
| ##   ##  |
| ##   ##  |
| ### # #  |
| # # # #  |
| # ##  #  |
| #  #  #  |
| #  #  #  |
| #     #  |
+###   ### +
|          |
|          |
|          |
|          |
ENDCHAR
STARTCHAR N
ENCODING 78
BBX 10 18 0 -4
SWIDTH 556 0
DWIDTH 10 0
BITMAP
|          |
|          |
|          |
|          |
|##    ### |
| ##    #  |
| ###   #  |
| # #   #  |
| # ##  #  |
| #  ## #  |
| #   # #  |
| #   ###  |
| #    ##  |
+###    #  +
|          |
|          |
|          |
|          |
ENDCHAR
STARTCHAR O
ENCODING 79
BBX 10 18 0 -4
SWIDTH 556 0
DWIDTH 10 0
BITMAP
|          |
|          |
|          |
|          |
|   ####   |
|  #   ##  |
| #     #  |
| #     #  |
| #     #  |
| #     #  |
| #     #  |
| #     #  |
| ##   #   |
+  ####    +
|          |
|          |
|          |
|          |
ENDCHAR
STARTCHAR P
ENCODING 80
BBX 10 18 0 -4
SWIDTH 556 0
DWIDTH 10 0
BITMAP
|          |
|          |
|          |
|          |
|#######   |
|  #   ##  |
|  #    #  |
|  #    #  |
|  #   #   |
|  ####    |
|  #       |
|  #       |
|  #       |
+#####     +
|          |
|          |
|          |
|          |
ENDCHAR
STARTCHAR Q
ENCODING 81
BBX 10 18 0 -4
SWIDTH 556 0
DWIDTH 10 0
BITMAP
|          |
|          |
|          |
|          |
|   ####   |
|  #   ##  |
| #     #  |
| #     #  |
| #     #  |
| #     #  |
| #     #  |
| #     #  |
| ##   #   |
+  ####    +
|    #     |
|    ##    |
|     ###  |
|          |
ENDCHAR
STARTCHAR R
ENCODING 82
BBX 10 18 0 -4
SWIDTH 556 0
DWIDTH 10 0
BITMAP
|          |
|          |
|          |
|          |
|#######   |
|  #   ##  |
|  #    #  |
|  #    #  |
|  #   #   |
|  ####    |
|  # ##    |
|  #  ##   |
|  #   ##  |
+#####  ## +
|          |
|          |
|          |
|          |
ENDCHAR
STARTCHAR S
ENCODING 83
BBX 10 18 0 -4
SWIDTH 556 0
DWIDTH 10 0
BITMAP
|          |
|          |
|          |
|          |
|   ####   |
|  #   ##  |
| #     #  |
| ##       |
|  #####   |
|      ##  |
|       #  |
| #     #  |
| ##   #   |
+  ####    +
|          |
|          |
|          |
|          |
ENDCHAR
STARTCHAR T
ENCODING 84
BBX 10 18 0 -4
SWIDTH 556 0
DWIDTH 10 0
BITMAP
|          |
|          |
|          |
|          |
| #######  |
| #  #  #  |
| #  #  #  |
|    #     |
|    #     |
|    #     |
|    #     |
|    #     |
|    #     |
+  #####   +
|          |
|          |
|          |
|          |
ENDCHAR
STARTCHAR U
ENCODING 85
BBX 10 18 0 -4
SWIDTH 556 0
DWIDTH 10 0
BITMAP
|          |
|          |
|          |
|          |
|###   ### |
| #     #  |
| #     #  |
| #     #  |
| #     #  |
| #     #  |
| #     #  |
| #     #  |
| ##   #   |
+  ####    +
|          |
|          |
|          |
|          |
ENDCHAR
STARTCHAR V
ENCODING 86
BBX 10 18 0 -4
SWIDTH 556 0
DWIDTH 10 0
BITMAP
|          |
|          |
|          |
|          |
|###   ### |
| #     #  |
| ##   #   |
|  #   #   |
|  ##  #   |
|   # #    |
|   # #    |
|   ##     |
|    #     |
+    #     +
|          |
|          |
|          |
|          |
ENDCHAR
STARTCHAR W
ENCODING 87
BBX 10 18 0 -4
SWIDTH 556 0
DWIDTH 10 0
BITMAP
|          |
|          |
|          |
|          |
|###   ### |
| #  #  #  |
| #  #  #  |
| #  ## #  |
| # # # #  |
| ### # #  |
|  ## ##   |
|  #   #   |
|  #   #   |
+  #   #   +
|          |
|          |
|          |
|          |
ENDCHAR
STARTCHAR X
ENCODING 88
BBX 10 18 0 -4
SWIDTH 556 0
DWIDTH 10 0
BITMAP
|          |
|          |
|          |
|          |
|###   ### |
|  #   #   |
|  ##  #   |
|   # #    |
|   ##     |
|    ##    |
|   # #    |
|  #  ##   |
|  #   #   |
+###   ### +
|          |
|          |
|          |
|          |
ENDCHAR
STARTCHAR Y
ENCODING 89
BBX 10 18 0 -4
SWIDTH 556 0
DWIDTH 10 0
BITMAP
|          |
|          |
|          |
|          |
|###   ### |
| #     #  |
| ##   #   |
|  ##  #   |
|   # #    |
|   ##     |
|    #     |
|    #     |
|    #     |
+  #####   +
|          |
|          |
|          |
|          |
ENDCHAR
STARTCHAR Z
ENCODING 90
BBX 10 18 0 -4
SWIDTH 556 0
DWIDTH 10 0
BITMAP
|          |
|          |
|          |
|          |
| #######  |
| #    #   |
| #    #   |
|     #    |
|    #     |
|   #      |
|   #      |
|  #    #  |
| #     #  |
+ #######  +
|          |
|          |
|          |
|          |
ENDCHAR
STARTCHAR bracketleft
ENCODING 91
BBX 10 18 0 -4
SWIDTH 556 0
DWIDTH 10 0
BITMAP
|          |
|          |
|          |
|   ###    |
|   #      |
|   #      |
|   #      |
|   #      |
|   #      |
|   #      |
|   #      |
|   #      |
|   #      |
+   #      +
|   #      |
|   #      |
|   ###    |
|          |
ENDCHAR
STARTCHAR backslash
ENCODING 92
BBX 10 18 0 -4
SWIDTH 556 0
DWIDTH 10 0
BITMAP
|          |
|          |
|          |
| #        |
| #        |
|  #       |
|  #       |
|   #      |
|   #      |
|    #     |
|    #     |
|     #    |
|     #    |
+      #   +
|      #   |
|       #  |
|       #  |
|          |
ENDCHAR
STARTCHAR bracketright
ENCODING 93
BBX 10 18 0 -4
SWIDTH 556 0
DWIDTH 10 0
BITMAP
|          |
|          |
|          |
|   ###    |
|     #    |
|     #    |
|     #    |
|     #    |
|     #    |
|     #    |
|     #    |
|     #    |
|     #    |
+     #    +
|     #    |
|     #    |
|   ###    |
|          |
ENDCHAR
STARTCHAR asciicircum
ENCODING 94
BBX 10 18 0 -4
SWIDTH 556 0
DWIDTH 10 0
BITMAP
|          |
|          |
|          |
|    #     |
|   # #    |
|  #   #   |
| #     #  |
|          |
|          |
|          |
|          |
|          |
|          |
+          +
|          |
|          |
|          |
|          |
ENDCHAR
STARTCHAR underscore
ENCODING 95
BBX 10 18 0 -4
SWIDTH 556 0
DWIDTH 10 0
BITMAP
|          |
|          |
|          |
|          |
|          |
|          |
|          |
|          |
|          |
|          |
|          |
|          |
|          |
+          +
|          |
|          |
|          |
| #######  |
ENDCHAR
STARTCHAR grave
ENCODING 96
BBX 10 18 0 -4
SWIDTH 556 0
DWIDTH 10 0
BITMAP
|          |
|          |
|          |
|          |
|  ##      |
|   ###    |
|     ##   |
|          |
|          |
|          |
|          |
|          |
|          |
+          +
|          |
|          |
|          |
|          |
ENDCHAR
STARTCHAR a
ENCODING 97
BBX 10 18 0 -4
SWIDTH 556 0
DWIDTH 10 0
BITMAP
|          |
|          |
|          |
|          |
|          |
|          |
|   ####   |
|  #   ##  |
|       #  |
|   #####  |
|  #    #  |
| #     #  |
| ##   ##  |
+  ####  # +
|          |
|          |
|          |
|          |
ENDCHAR
STARTCHAR b
ENCODING 98
BBX 10 18 0 -4
SWIDTH 556 0
DWIDTH 10 0
BITMAP
|          |
|          |
|          |
|##        |
| #        |
| #        |
| #  ###   |
| # #  ##  |
| ##    #  |
| #     #  |
| #     #  |
| #     #  |
| ##   #   |
+ # ###    +
|          |
|          |
|          |
|          |
ENDCHAR
STARTCHAR c
ENCODING 99
BBX 10 18 0 -4
SWIDTH 556 0
DWIDTH 10 0
BITMAP
|          |
|          |
|          |
|          |
|          |
|          |
|   ####   |
|  #   ##  |
| #     #  |
| #        |
| #        |
| #        |
| ##    #  |
+  #####   +
|          |
|          |
|          |
|          |
ENDCHAR
STARTCHAR d
ENCODING 100
BBX 10 18 0 -4
SWIDTH 556 0
DWIDTH 10 0
BITMAP
|          |
|          |
|          |
|     ###  |
|       #  |
|       #  |
|   ### #  |
|  #   ##  |
| #     #  |
| #     #  |
| #     #  |
| #    ##  |
| ##  # #  |
+  ###  ## +
|          |
|          |
|          |
|          |
ENDCHAR
STARTCHAR e
ENCODING 101
BBX 10 18 0 -4
SWIDTH 556 0
DWIDTH 10 0
BITMAP
|          |
|          |
|          |
|          |
|          |
|          |
|   ####   |
|  #   ##  |
| #     #  |
| ######   |
| #        |
| #        |
| ##    #  |
+  #####   +
|          |
|          |
|          |
|          |
ENDCHAR
STARTCHAR f
ENCODING 102
BBX 10 18 0 -4
SWIDTH 556 0
DWIDTH 10 0
BITMAP
|          |
|          |
|          |
|    ###   |
|   #  ##  |
|   #      |
| #####    |
|   #      |
|   #      |
|   #      |
|   #      |
|   #      |
|   #      |
+ #####    +
|          |
|          |
|          |
|          |
ENDCHAR
STARTCHAR g
ENCODING 103
BBX 10 18 0 -4
SWIDTH 556 0
DWIDTH 10 0
BITMAP
|          |
|          |
|          |
|          |
|      ##  |
|      #   |
|  #####   |
| #    ##  |
| #     #  |
| #     #  |
| ##    #  |
|  #####   |
|   #      |
+  #####   +
| #    ##  |
| ##    #  |
|  #####   |
|          |
ENDCHAR
STARTCHAR h
ENCODING 104
BBX 10 18 0 -4
SWIDTH 556 0
DWIDTH 10 0
BITMAP
|          |
|          |
|          |
|##        |
| #        |
| #        |
| #  ###   |
| # #  ##  |
| ##    #  |
| #     #  |
| #     #  |
| #     #  |
| #     #  |
+###   ### +
|          |
|          |
|          |
|          |
ENDCHAR
STARTCHAR i
ENCODING 105
BBX 10 18 0 -4
SWIDTH 556 0
DWIDTH 10 0
BITMAP
|          |
|          |
|    #     |
|   ###    |
|    #     |
|          |
|  ###     |
|    #     |
|    #     |
|    #     |
|    #     |
|    #     |
|    #     |
+ #######  +
|          |
|          |
|          |
|          |
ENDCHAR
STARTCHAR j
ENCODING 106
BBX 10 18 0 -4
SWIDTH 556 0
DWIDTH 10 0
BITMAP
|          |
|          |
|     #    |
|    ###   |
|     #    |
|          |
|   ###    |
|     #    |
|     #    |
|     #    |
|     #    |
|     #    |
|     #    |
+    #     +
|    #     |
|   #      |
|  #       |
| #        |
ENDCHAR
STARTCHAR k
ENCODING 107
BBX 10 18 0 -4
SWIDTH 556 0
DWIDTH 10 0
BITMAP
|          |
|          |
|          |
|##        |
| #        |
| #        |
| #   ###  |
| #   #    |
| #  #     |
| # #      |
| ## #     |
| #   #    |
| #    #   |
+###   ### +
|          |
|          |
|          |
|          |
ENDCHAR
STARTCHAR l
ENCODING 108
BBX 10 18 0 -4
SWIDTH 556 0
DWIDTH 10 0
BITMAP
|          |
|          |
|          |
|  ###     |
|    #     |
|    #     |
|    #     |
|    #     |
|    #     |
|    #     |
|    #     |
|    #     |
|    #     |
+ #######  +
|          |
|          |
|          |
|          |
ENDCHAR
STARTCHAR m
ENCODING 109
BBX 10 18 0 -4
SWIDTH 556 0
DWIDTH 10 0
BITMAP
|          |
|          |
|          |
|          |
|          |
|          |
|## ## ##  |
| ## ## #  |
| #  #  #  |
| #  #  #  |
| #  #  #  |
| #  #  #  |
| #  #  #  |
+### ## ## +
|          |
|          |
|          |
|          |
ENDCHAR
STARTCHAR n
ENCODING 110
BBX 10 18 0 -4
SWIDTH 556 0
DWIDTH 10 0
BITMAP
|          |
|          |
|          |
|          |
|          |
|          |
|##  ###   |
| # #  ##  |
| ##    #  |
| #     #  |
| #     #  |
| #     #  |
| #     #  |
+###   ### +
|          |
|          |
|          |
|          |
ENDCHAR
STARTCHAR o
ENCODING 111
BBX 10 18 0 -4
SWIDTH 556 0
DWIDTH 10 0
BITMAP
|          |
|          |
|          |
|          |
|          |
|          |
|   ####   |
|  #   ##  |
| #     #  |
| #     #  |
| #     #  |
| #     #  |
| ##   #   |
+  ####    +
|          |
|          |
|          |
|          |
ENDCHAR
STARTCHAR p
ENCODING 112
BBX 10 18 0 -4
SWIDTH 556 0
DWIDTH 10 0
BITMAP
|          |
|          |
|          |
|          |
|          |
|          |
|##  ###   |
| # #  ##  |
| ##    #  |
| #     #  |
| #     #  |
| #     #  |
| ##   #   |
+ # ###    +
| #        |
| #        |
|####      |
|          |
ENDCHAR
STARTCHAR q
ENCODING 113
BBX 10 18 0 -4
SWIDTH 556 0
DWIDTH 10 0
BITMAP
|          |
|          |
|          |
|          |
|          |
|          |
|   ### #  |
|  #   ##  |
| #     #  |
| #     #  |
| #     #  |
| #    ##  |
| ##  # #  |
+  ###  #  +
|       #  |
|       #  |
|     #### |
|          |
ENDCHAR
STARTCHAR r
ENCODING 114
BBX 10 18 0 -4
SWIDTH 556 0
DWIDTH 10 0
BITMAP
|          |
|          |
|          |
|          |
|          |
|          |
|### ###   |
|  ##  ##  |
|  #    #  |
|  #       |
|  #       |
|  #       |
|  #       |
+######    +
|          |
|          |
|          |
|          |
ENDCHAR
STARTCHAR s
ENCODING 115
BBX 10 18 0 -4
SWIDTH 556 0
DWIDTH 10 0
BITMAP
|          |
|          |
|          |
|          |
|          |
|          |
|  #####   |
| #    ##  |
| ##       |
|  #####   |
|      ##  |
| #     #  |
| ##    #  |
+  #####   +
|          |
|          |
|          |
|          |
ENDCHAR
STARTCHAR t
ENCODING 116
BBX 10 18 0 -4
SWIDTH 556 0
DWIDTH 10 0
BITMAP
|          |
|          |
|          |
|          |
|   #      |
|   #      |
| ######   |
|   #      |
|   #      |
|   #      |
|   #      |
|   #      |
|   ##  #  |
+    ###   +
|          |
|          |
|          |
|          |
ENDCHAR
STARTCHAR u
ENCODING 117
BBX 10 18 0 -4
SWIDTH 556 0
DWIDTH 10 0
BITMAP
|          |
|          |
|          |
|          |
|          |
|          |
|##    ##  |
| #     #  |
| #     #  |
| #     #  |
| #     #  |
| #    ##  |
| ##  # #  |
+  ###  ## +
|          |
|          |
|          |
|          |
ENDCHAR
STARTCHAR v
ENCODING 118
BBX 10 18 0 -4
SWIDTH 556 0
DWIDTH 10 0
BITMAP
|          |
|          |
|          |
|          |
|          |
|          |
|###   ### |
| #     #  |
| ##   #   |
|  #   #   |
|  ## #    |
|   # #    |
|   ##     |
+    #     +
|          |
|          |
|          |
|          |
ENDCHAR
STARTCHAR w
ENCODING 119
BBX 10 18 0 -4
SWIDTH 556 0
DWIDTH 10 0
BITMAP
|          |
|          |
|          |
|          |
|          |
|          |
|###   ### |
| #  #  #  |
| #  #  #  |
| #  ## #  |
| ### ##   |
|  #  ##   |
|  #   #   |
+  #   #   +
|          |
|          |
|          |
|          |
ENDCHAR
STARTCHAR x
ENCODING 120
BBX 10 18 0 -4
SWIDTH 556 0
DWIDTH 10 0
BITMAP
|          |
|          |
|          |
|          |
|          |
|          |
|###   ### |
|  #   #   |
|  ## #    |
|   ##     |
|    ##    |
|   # ##   |
|  #   #   |
+###   ### +
|          |
|          |
|          |
|          |
ENDCHAR
STARTCHAR y
ENCODING 121
BBX 10 18 0 -4
SWIDTH 556 0
DWIDTH 10 0
BITMAP
|          |
|          |
|          |
|          |
|          |
|          |
|###   ### |
| #     #  |
| ##   #   |
|  #   #   |
|  ## #    |
|   # #    |
|   ##     |
+    #     +
|   #      |
|###       |
| #        |
|          |
ENDCHAR
STARTCHAR z
ENCODING 122
BBX 10 18 0 -4
SWIDTH 556 0
DWIDTH 10 0
BITMAP
|          |
|          |
|          |
|          |
|          |
|          |
| #######  |
| #    #   |
|     #    |
|    #     |
|    #     |
|   #      |
|  #    #  |
+ #######  +
|          |
|          |
|          |
|          |
ENDCHAR
STARTCHAR braceleft
ENCODING 123
BBX 10 18 0 -4
SWIDTH 556 0
DWIDTH 10 0
BITMAP
|          |
|          |
|          |
|      #   |
|     #    |
|    #     |
|    #     |
|    #     |
|    #     |
|   #      |
|  #       |
|   #      |
|    #     |
+    #     +
|    #     |
|    #     |
|     #    |
|      #   |
ENDCHAR
STARTCHAR bar
ENCODING 124
BBX 10 18 0 -4
SWIDTH 556 0
DWIDTH 10 0
BITMAP
|          |
|          |
|          |
|    #     |
|    #     |
|    #     |
|    #     |
|    #     |
|    #     |
|    #     |
|    #     |
|    #     |
|    #     |
+    #     +
|    #     |
|    #     |
|    #     |
|          |
ENDCHAR
STARTCHAR braceright
ENCODING 125
BBX 10 18 0 -4
SWIDTH 556 0
DWIDTH 10 0
BITMAP
|          |
|          |
|          |
|  #       |
|   #      |
|    #     |
|    #     |
|    #     |
|    #     |
|     #    |
|      #   |
|     #    |
|    #     |
+    #     +
|    #     |
|    #     |
|   #      |
|  #       |
ENDCHAR
STARTCHAR asciitilde
ENCODING 126
BBX 10 18 0 -4
SWIDTH 556 0
DWIDTH 10 0
BITMAP
|          |
|          |
|          |
|          |
|          |
|          |
|          |
|          |
|          |
|  ##    # |
| # ### #  |
|#    ##   |
|          |
+          +
|          |
|          |
|          |
|          |
ENDCHAR
STARTCHAR controlDEL
ENCODING 127
BBX 10 18 0 -4
SWIDTH 556 0
DWIDTH 10 0
BITMAP
|          |
|          |
|          |
|          |
|          |
|          |
|          |
|          |
|          |
|          |
|          |
|          |
|          |
+          +
|          |
|          |
|          |
|          |
ENDCHAR
STARTCHAR uni0080
ENCODING 128
BBX 10 18 0 -4
SWIDTH 556 0
DWIDTH 10 0
BITMAP
|          |
|          |
|          |
|          |
|          |
|          |
|          |
|          |
|          |
|          |
|          |
|          |
|          |
+          +
|          |
|          |
|          |
|          |
ENDCHAR
STARTCHAR uni0081
ENCODING 129
BBX 10 18 0 -4
SWIDTH 556 0
DWIDTH 10 0
BITMAP
|          |
|          |
|          |
|          |
|          |
|          |
|          |
|          |
|          |
|          |
|          |
|          |
|          |
+          +
|          |
|          |
|          |
|          |
ENDCHAR
STARTCHAR uni0082
ENCODING 130
BBX 10 18 0 -4
SWIDTH 556 0
DWIDTH 10 0
BITMAP
|          |
|          |
|          |
|          |
|          |
|          |
|          |
|          |
|          |
|          |
|          |
|          |
|          |
+          +
|          |
|          |
|          |
|          |
ENDCHAR
STARTCHAR uni0083
ENCODING 131
BBX 10 18 0 -4
SWIDTH 556 0
DWIDTH 10 0
BITMAP
|          |
|          |
|          |
|          |
|          |
|          |
|          |
|          |
|          |
|          |
|          |
|          |
|          |
+          +
|          |
|          |
|          |
|          |
ENDCHAR
STARTCHAR uni0084
ENCODING 132
BBX 10 18 0 -4
SWIDTH 556 0
DWIDTH 10 0
BITMAP
|          |
|          |
|          |
|          |
|          |
|          |
|          |
|          |
|          |
|          |
|          |
|          |
|          |
+          +
|          |
|          |
|          |
|          |
ENDCHAR
STARTCHAR uni0085
ENCODING 133
BBX 10 18 0 -4
SWIDTH 556 0
DWIDTH 10 0
BITMAP
|          |
|          |
|          |
|          |
|          |
|          |
|          |
|          |
|          |
|          |
|          |
|          |
|          |
+          +
|          |
|          |
|          |
|          |
ENDCHAR
STARTCHAR uni0086
ENCODING 134
BBX 10 18 0 -4
SWIDTH 556 0
DWIDTH 10 0
BITMAP
|          |
|          |
|          |
|          |
|          |
|          |
|          |
|          |
|          |
|          |
|          |
|          |
|          |
+          +
|          |
|          |
|          |
|          |
ENDCHAR
STARTCHAR uni0087
ENCODING 135
BBX 10 18 0 -4
SWIDTH 556 0
DWIDTH 10 0
BITMAP
|          |
|          |
|          |
|          |
|          |
|          |
|          |
|          |
|          |
|          |
|          |
|          |
|          |
+          +
|          |
|          |
|          |
|          |
ENDCHAR
STARTCHAR uni0088
ENCODING 136
BBX 10 18 0 -4
SWIDTH 556 0
DWIDTH 10 0
BITMAP
|          |
|          |
|          |
|          |
|          |
|          |
|          |
|          |
|          |
|          |
|          |
|          |
|          |
+          +
|          |
|          |
|          |
|          |
ENDCHAR
STARTCHAR uni0089
ENCODING 137
BBX 10 18 0 -4
SWIDTH 556 0
DWIDTH 10 0
BITMAP
|          |
|          |
|          |
|          |
|          |
|          |
|          |
|          |
|          |
|          |
|          |
|          |
|          |
+          +
|          |
|          |
|          |
|          |
ENDCHAR
STARTCHAR uni008A
ENCODING 138
BBX 10 18 0 -4
SWIDTH 556 0
DWIDTH 10 0
BITMAP
|          |
|          |
|          |
|          |
|          |
|          |
|          |
|          |
|          |
|          |
|          |
|          |
|          |
+          +
|          |
|          |
|          |
|          |
ENDCHAR
STARTCHAR uni008B
ENCODING 139
BBX 10 18 0 -4
SWIDTH 556 0
DWIDTH 10 0
BITMAP
|          |
|          |
|          |
|          |
|          |
|          |
|          |
|          |
|          |
|          |
|          |
|          |
|          |
+          +
|          |
|          |
|          |
|          |
ENDCHAR
STARTCHAR uni008C
ENCODING 140
BBX 10 18 0 -4
SWIDTH 556 0
DWIDTH 10 0
BITMAP
|          |
|          |
|          |
|          |
|          |
|          |
|          |
|          |
|          |
|          |
|          |
|          |
|          |
+          +
|          |
|          |
|          |
|          |
ENDCHAR
STARTCHAR uni008D
ENCODING 141
BBX 10 18 0 -4
SWIDTH 556 0
DWIDTH 10 0
BITMAP
|          |
|          |
|          |
|          |
|          |
|          |
|          |
|          |
|          |
|          |
|          |
|          |
|          |
+          +
|          |
|          |
|          |
|          |
ENDCHAR
STARTCHAR uni008E
ENCODING 142
BBX 10 18 0 -4
SWIDTH 556 0
DWIDTH 10 0
BITMAP
|          |
|          |
|          |
|          |
|          |
|          |
|          |
|          |
|          |
|          |
|          |
|          |
|          |
+          +
|          |
|          |
|          |
|          |
ENDCHAR
STARTCHAR uni008F
ENCODING 143
BBX 10 18 0 -4
SWIDTH 556 0
DWIDTH 10 0
BITMAP
|          |
|          |
|          |
|          |
|          |
|          |
|          |
|          |
|          |
|          |
|          |
|          |
|          |
+          +
|          |
|          |
|          |
|          |
ENDCHAR
STARTCHAR uni0090
ENCODING 144
BBX 10 18 0 -4
SWIDTH 556 0
DWIDTH 10 0
BITMAP
|          |
|          |
|          |
|          |
|          |
|          |
|          |
|          |
|          |
|          |
|          |
|          |
|          |
+          +
|          |
|          |
|          |
|          |
ENDCHAR
STARTCHAR uni0091
ENCODING 145
BBX 10 18 0 -4
SWIDTH 556 0
DWIDTH 10 0
BITMAP
|          |
|          |
|          |
|          |
|          |
|          |
|          |
|          |
|          |
|          |
|          |
|          |
|          |
+          +
|          |
|          |
|          |
|          |
ENDCHAR
STARTCHAR uni0092
ENCODING 146
BBX 10 18 0 -4
SWIDTH 556 0
DWIDTH 10 0
BITMAP
|          |
|          |
|          |
|          |
|          |
|          |
|          |
|          |
|          |
|          |
|          |
|          |
|          |
+          +
|          |
|          |
|          |
|          |
ENDCHAR
STARTCHAR uni0093
ENCODING 147
BBX 10 18 0 -4
SWIDTH 556 0
DWIDTH 10 0
BITMAP
|          |
|          |
|          |
|          |
|          |
|          |
|          |
|          |
|          |
|          |
|          |
|          |
|          |
+          +
|          |
|          |
|          |
|          |
ENDCHAR
STARTCHAR uni0094
ENCODING 148
BBX 10 18 0 -4
SWIDTH 556 0
DWIDTH 10 0
BITMAP
|          |
|          |
|          |
|          |
|          |
|          |
|          |
|          |
|          |
|          |
|          |
|          |
|          |
+          +
|          |
|          |
|          |
|          |
ENDCHAR
STARTCHAR uni0095
ENCODING 149
BBX 10 18 0 -4
SWIDTH 556 0
DWIDTH 10 0
BITMAP
|          |
|          |
|          |
|          |
|          |
|          |
|          |
|          |
|          |
|          |
|          |
|          |
|          |
+          +
|          |
|          |
|          |
|          |
ENDCHAR
STARTCHAR uni0096
ENCODING 150
BBX 10 18 0 -4
SWIDTH 556 0
DWIDTH 10 0
BITMAP
|          |
|          |
|          |
|          |
|          |
|          |
|          |
|          |
|          |
|          |
|          |
|          |
|          |
+          +
|          |
|          |
|          |
|          |
ENDCHAR
STARTCHAR uni0097
ENCODING 151
BBX 10 18 0 -4
SWIDTH 556 0
DWIDTH 10 0
BITMAP
|          |
|          |
|          |
|          |
|          |
|          |
|          |
|          |
|          |
|          |
|          |
|          |
|          |
+          +
|          |
|          |
|          |
|          |
ENDCHAR
STARTCHAR uni0098
ENCODING 152
BBX 10 18 0 -4
SWIDTH 556 0
DWIDTH 10 0
BITMAP
|          |
|          |
|          |
|          |
|          |
|          |
|          |
|          |
|          |
|          |
|          |
|          |
|          |
+          +
|          |
|          |
|          |
|          |
ENDCHAR
STARTCHAR uni0099
ENCODING 153
BBX 10 18 0 -4
SWIDTH 556 0
DWIDTH 10 0
BITMAP
|          |
|          |
|          |
|          |
|          |
|          |
|          |
|          |
|          |
|          |
|          |
|          |
|          |
+          +
|          |
|          |
|          |
|          |
ENDCHAR
STARTCHAR uni009A
ENCODING 154
BBX 10 18 0 -4
SWIDTH 556 0
DWIDTH 10 0
BITMAP
|          |
|          |
|          |
|          |
|          |
|          |
|          |
|          |
|          |
|          |
|          |
|          |
|          |
+          +
|          |
|          |
|          |
|          |
ENDCHAR
STARTCHAR uni009B
ENCODING 155
BBX 10 18 0 -4
SWIDTH 556 0
DWIDTH 10 0
BITMAP
|          |
|          |
|          |
|          |
|          |
|          |
|          |
|          |
|          |
|          |
|          |
|          |
|          |
+          +
|          |
|          |
|          |
|          |
ENDCHAR
STARTCHAR uni009C
ENCODING 156
BBX 10 18 0 -4
SWIDTH 556 0
DWIDTH 10 0
BITMAP
|          |
|          |
|          |
|          |
|          |
|          |
|          |
|          |
|          |
|          |
|          |
|          |
|          |
+          +
|          |
|          |
|          |
|          |
ENDCHAR
STARTCHAR uni009D
ENCODING 157
BBX 10 18 0 -4
SWIDTH 556 0
DWIDTH 10 0
BITMAP
|          |
|          |
|          |
|          |
|          |
|          |
|          |
|          |
|          |
|          |
|          |
|          |
|          |
+          +
|          |
|          |
|          |
|          |
ENDCHAR
STARTCHAR uni009E
ENCODING 158
BBX 10 18 0 -4
SWIDTH 556 0
DWIDTH 10 0
BITMAP
|          |
|          |
|          |
|          |
|          |
|          |
|          |
|          |
|          |
|          |
|          |
|          |
|          |
+          +
|          |
|          |
|          |
|          |
ENDCHAR
STARTCHAR uni009F
ENCODING 159
BBX 10 18 0 -4
SWIDTH 556 0
DWIDTH 10 0
BITMAP
|          |
|          |
|          |
|          |
|          |
|          |
|          |
|          |
|          |
|          |
|          |
|          |
|          |
+          +
|          |
|          |
|          |
|          |
ENDCHAR
STARTCHAR nbspace
ENCODING 160
BBX 10 18 0 -4
SWIDTH 556 0
DWIDTH 10 0
BITMAP
|          |
|          |
|          |
|          |
|          |
|          |
|          |
|          |
|          |
|          |
|          |
|          |
|          |
+          +
|          |
|          |
|          |
|          |
ENDCHAR
STARTCHAR exclamdown
ENCODING 161
BBX 10 18 0 -4
SWIDTH 556 0
DWIDTH 10 0
BITMAP
|          |
|          |
|          |
|          |
|          |
|          |
|    #     |
|   ###    |
|    #     |
|          |
|          |
|    #     |
|    #     |
+   ###    +
|   ###    |
|   ###    |
|    #     |
|          |
ENDCHAR
STARTCHAR cent
ENCODING 162
BBX 10 18 0 -4
SWIDTH 556 0
DWIDTH 10 0
BITMAP
|          |
|          |
|          |
|       #  |
|       #  |
|      #   |
|   ####   |
|  #  ###  |
| #   # #  |
| #  #     |
| #  #     |
| # #      |
| ###   #  |
+  #####   +
|  #       |
| #        |
| #        |
|          |
ENDCHAR
STARTCHAR sterling
ENCODING 163
BBX 10 18 0 -4
SWIDTH 556 0
DWIDTH 10 0
BITMAP
|          |
|          |
|          |
|          |
|   ###    |
|  #  ##   |
|  #  ##   |
|  ##      |
| #####    |
|   #      |
|   #      |
| ####   # |
|## ###  # |
+ ##  ###  +
|          |
|          |
|          |
|          |
ENDCHAR
STARTCHAR currency
ENCODING 164
BBX 10 18 0 -4
SWIDTH 556 0
DWIDTH 10 0
BITMAP
|          |
|          |
|          |
|          |
|          |
|##     ## |
| #######  |
|  ## ##   |
| ##   ##  |
| #     #  |
| ##   ##  |
|  ## ##   |
| #######  |
+##     ## +
|          |
|          |
|          |
|          |
ENDCHAR
STARTCHAR yen
ENCODING 165
BBX 10 18 0 -4
SWIDTH 556 0
DWIDTH 10 0
BITMAP
|          |
|          |
|          |
|          |
|###   ### |
| #     #  |
| ##   #   |
|  ##  #   |
| #######  |
|   ##     |
| #######  |
|    #     |
|    #     |
+  #####   +
|          |
|          |
|          |
|          |
ENDCHAR
STARTCHAR brokenbar
ENCODING 166
BBX 10 18 0 -4
SWIDTH 556 0
DWIDTH 10 0
BITMAP
|          |
|          |
|          |
|    #     |
|    #     |
|    #     |
|    #     |
|    #     |
|          |
|          |
|          |
|          |
|    #     |
+    #     +
|    #     |
|    #     |
|    #     |
|          |
ENDCHAR
STARTCHAR section
ENCODING 167
BBX 10 18 0 -4
SWIDTH 556 0
DWIDTH 10 0
BITMAP
|          |
|          |
|          |
|   ###    |
|  #  ##   |
|  #   #   |
|  ##      |
|   ##     |
|  # ##    |
|  #  ##   |
|  ##  #   |
|   ## #   |
|    ##    |
+     ##   +
|  #   #   |
|  ##  #   |
|   ###    |
|          |
ENDCHAR
STARTCHAR dieresis
ENCODING 168
BBX 10 18 0 -4
SWIDTH 556 0
DWIDTH 10 0
BITMAP
|          |
|          |
|          |
|  #   #   |
| ### ###  |
|  #   #   |
|          |
|          |
|          |
|          |
|          |
|          |
|          |
+          +
|          |
|          |
|          |
|          |
ENDCHAR
STARTCHAR copyright
ENCODING 169
BBX 10 18 0 -4
SWIDTH 556 0
DWIDTH 10 0
BITMAP
|          |
|          |
|          |
|          |
|  #####   |
| #     #  |
|#  ###  # |
|# ## ## # |
|# #     # |
|# #     # |
|# ## ## # |
|#  ###  # |
| #     #  |
+  #####   +
|          |
|          |
|          |
|          |
ENDCHAR
STARTCHAR ordfeminine
ENCODING 170
BBX 10 18 0 -4
SWIDTH 556 0
DWIDTH 10 0
BITMAP
|          |
|          |
|   ####   |
|  #   ##  |
|       #  |
|   #####  |
|  #    #  |
| #     #  |
| ##   ##  |
|  ####  # |
|          |
|  #####   |
|          |
+          +
|          |
|          |
|          |
|          |
ENDCHAR
STARTCHAR guillemotleft
ENCODING 171
BBX 10 18 0 -4
SWIDTH 556 0
DWIDTH 10 0
BITMAP
|          |
|          |
|          |
|          |
|          |
|          |
|    #   # |
|   #   #  |
|  #   #   |
| ##  ##   |
|##  ##    |
| ##  ##   |
|  #   #   |
+   #   #  +
|    #   # |
|          |
|          |
|          |
ENDCHAR
STARTCHAR logicalnot
ENCODING 172
BBX 10 18 0 -4
SWIDTH 556 0
DWIDTH 10 0
BITMAP
|          |
|          |
|          |
|          |
|          |
|          |
|          |
|          |
| #######  |
|       #  |
|       #  |
|       #  |
|          |
+          +
|          |
|          |
|          |
|          |
ENDCHAR
STARTCHAR sfthyphen
ENCODING 173
BBX 10 18 0 -4
SWIDTH 556 0
DWIDTH 10 0
BITMAP
|          |
|          |
|          |
|          |
|          |
|          |
|          |
|          |
|          |
|  #####   |
|          |
|          |
|          |
+          +
|          |
|          |
|          |
|          |
ENDCHAR
STARTCHAR registered
ENCODING 174
BBX 10 18 0 -4
SWIDTH 556 0
DWIDTH 10 0
BITMAP
|          |
|          |
|          |
|          |
|  #####   |
| #     #  |
|# ####  # |
|# #  ## # |
|# #   # # |
|# ####  # |
|# #  ## # |
|# #   # # |
| #     #  |
+  #####   +
|          |
|          |
|          |
|          |
ENDCHAR
STARTCHAR macron
ENCODING 175
BBX 10 18 0 -4
SWIDTH 556 0
DWIDTH 10 0
BITMAP
|          |
|          |
|          |
|  #####   |
|          |
|          |
|          |
|          |
|          |
|          |
|          |
|          |
|          |
+          +
|          |
|          |
|          |
|          |
ENDCHAR
STARTCHAR degree
ENCODING 176
BBX 10 18 0 -4
SWIDTH 556 0
DWIDTH 10 0
BITMAP
|          |
|          |
|          |
|   ###    |
|  #   #   |
|  #   #   |
|  #   #   |
|   ###    |
|          |
|          |
|          |
|          |
|          |
+          +
|          |
|          |
|          |
|          |
ENDCHAR
STARTCHAR plusminus
ENCODING 177
BBX 10 18 0 -4
SWIDTH 556 0
DWIDTH 10 0
BITMAP
|          |
|          |
|          |
|          |
|          |
|    #     |
|    #     |
|    #     |
| #######  |
|    #     |
|    #     |
|    #     |
|          |
+ #######  +
|          |
|          |
|          |
|          |
ENDCHAR
STARTCHAR twosuperior
ENCODING 178
BBX 10 18 0 -4
SWIDTH 556 0
DWIDTH 10 0
BITMAP
|          |
|          |
|          |
|   ###    |
|  #  ##   |
|      #   |
|     #    |
|    #     |
|   #  #   |
|  #####   |
|          |
|          |
|          |
+          +
|          |
|          |
|          |
|          |
ENDCHAR
STARTCHAR threesuperior
ENCODING 179
BBX 10 18 0 -4
SWIDTH 556 0
DWIDTH 10 0
BITMAP
|          |
|          |
|          |
|   ###    |
|  #  ##   |
|      #   |
|    ##    |
|     ##   |
|  #   #   |
|   ###    |
|          |
|          |
|          |
+          +
|          |
|          |
|          |
|          |
ENDCHAR
STARTCHAR acute
ENCODING 180
BBX 10 18 0 -4
SWIDTH 556 0
DWIDTH 10 0
BITMAP
|          |
|          |
|      #   |
|     #    |
|    #     |
|   #      |
|  #       |
|          |
|          |
|          |
|          |
|          |
|          |
+          +
|          |
|          |
|          |
|          |
ENDCHAR
STARTCHAR mu
ENCODING 181
BBX 10 18 0 -4
SWIDTH 556 0
DWIDTH 10 0
BITMAP
|          |
|          |
|          |
|          |
|          |
|          |
| ##   ##  |
|  #    #  |
|  #    #  |
|  #    #  |
| #    #   |
| #    #   |
| ##  ##   |
+ # ##  #  +
|#         |
|#         |
|#         |
|          |
ENDCHAR
STARTCHAR paragraph
ENCODING 182
BBX 10 18 0 -4
SWIDTH 556 0
DWIDTH 10 0
BITMAP
|          |
|          |
|          |
|   #####  |
|  ### #   |
| #### #   |
| #### #   |
| #### #   |
|  ### #   |
|   ## #   |
|    # #   |
|    # #   |
|    # #   |
+    # #   +
|    # #   |
|    # #   |
|    # #   |
|          |
ENDCHAR
STARTCHAR periodcentered
ENCODING 183
BBX 10 18 0 -4
SWIDTH 556 0
DWIDTH 10 0
BITMAP
|          |
|          |
|          |
|          |
|          |
|          |
|          |
|          |
|    #     |
|   ###    |
|    #     |
|          |
|          |
+          +
|          |
|          |
|          |
|          |
ENDCHAR
STARTCHAR cedilla
ENCODING 184
BBX 10 18 0 -4
SWIDTH 556 0
DWIDTH 10 0
BITMAP
|          |
|          |
|          |
|          |
|          |
|          |
|          |
|          |
|          |
|          |
|          |
|          |
|          |
+    #     +
|   #      |
|   ###    |
|     ##   |
|   ###    |
ENDCHAR
STARTCHAR onesuperior
ENCODING 185
BBX 10 18 0 -4
SWIDTH 556 0
DWIDTH 10 0
BITMAP
|          |
|          |
|          |
|    #     |
|  ###     |
|    #     |
|    #     |
|    #     |
|    #     |
|  #####   |
|          |
|          |
|          |
+          +
|          |
|          |
|          |
|          |
ENDCHAR
STARTCHAR ordmasculine
ENCODING 186
BBX 10 18 0 -4
SWIDTH 556 0
DWIDTH 10 0
BITMAP
|          |
|          |
|   ####   |
|  #   ##  |
| #     #  |
| #     #  |
| #     #  |
| #     #  |
| ##   #   |
|  ####    |
|          |
|  #####   |
|          |
+          +
|          |
|          |
|          |
|          |
ENDCHAR
STARTCHAR guillemotright
ENCODING 187
BBX 10 18 0 -4
SWIDTH 556 0
DWIDTH 10 0
BITMAP
|          |
|          |
|          |
|          |
|          |
|          |
|#   #     |
| #   #    |
|  #   #   |
|  ##  ##  |
|   ##  ## |
|  ##  ##  |
|  #   #   |
+ #   #    +
|#   #     |
|          |
|          |
|          |
ENDCHAR
STARTCHAR onequarter
ENCODING 188
BBX 10 18 0 -4
SWIDTH 556 0
DWIDTH 10 0
BITMAP
|          |
|    #     |
|  ###     |
|    #     |
|    #     |
|    #     |
|    #     |
|  #####   |
|          |
| #######  |
|          |
|      #   |
|     #    |
+    #     +
|   # #    |
|  #####   |
|     #    |
|    ###   |
ENDCHAR
STARTCHAR onehalf
ENCODING 189
BBX 10 18 0 -4
SWIDTH 556 0
DWIDTH 10 0
BITMAP
|          |
|    #     |
|  ###     |
|    #     |
|    #     |
|    #     |
|    #     |
|  #####   |
|          |
| #######  |
|          |
|   ###    |
|  #  ##   |
+      #   +
|     #    |
|    #     |
|   #  #   |
|  #####   |
ENDCHAR
STARTCHAR threequarters
ENCODING 190
BBX 10 18 0 -4
SWIDTH 556 0
DWIDTH 10 0
BITMAP
|          |
|   ###    |
|  #  ##   |
|      #   |
|    ##    |
|     ##   |
|  #   #   |
|   ###    |
|          |
| #######  |
|          |
|      #   |
|     #    |
+    #     +
|   # #    |
|  #####   |
|     #    |
|    ###   |
ENDCHAR
STARTCHAR questiondown
ENCODING 191
BBX 10 18 0 -4
SWIDTH 556 0
DWIDTH 10 0
BITMAP
|          |
|          |
|          |
|          |
|          |
|          |
|    #     |
|   ###    |
|    #     |
|          |
|    #     |
|   #      |
|  #       |
+ #     #  +
| ##   #   |
|  ####    |
|          |
|          |
ENDCHAR
STARTCHAR Agrave
ENCODING 192
BBX 10 18 0 -4
SWIDTH 556 0
DWIDTH 10 0
BITMAP
|  ##      |
|    ##    |
|      #   |
|          |
|    #     |
|    #     |
|   ###    |
|   # #    |
|   # #    |
|  #   #   |
|  #####   |
| #    ##  |
| #     #  |
+###   ### +
|          |
|          |
|          |
|          |
ENDCHAR
STARTCHAR Aacute
ENCODING 193
BBX 10 18 0 -4
SWIDTH 556 0
DWIDTH 10 0
BITMAP
|     ##   |
|   ##     |
|  #       |
|          |
|    #     |
|    #     |
|   ###    |
|   # #    |
|   # #    |
|  #   #   |
|  #####   |
| #    ##  |
| #     #  |
+###   ### +
|          |
|          |
|          |
|          |
ENDCHAR
STARTCHAR Acircumflex
ENCODING 194
BBX 10 18 0 -4
SWIDTH 556 0
DWIDTH 10 0
BITMAP
|    #     |
|   # #    |
|  #   #   |
|          |
|    #     |
|    #     |
|   ###    |
|   # #    |
|   # #    |
|  #   #   |
|  #####   |
| #    ##  |
| #     #  |
+###   ### +
|          |
|          |
|          |
|          |
ENDCHAR
STARTCHAR Atilde
ENCODING 195
BBX 10 18 0 -4
SWIDTH 556 0
DWIDTH 10 0
BITMAP
|  ##   #  |
| # ### #  |
| #   ##   |
|          |
|    #     |
|    #     |
|   ###    |
|   # #    |
|   # #    |
|  #   #   |
|  #####   |
| #    ##  |
| #     #  |
+###   ### +
|          |
|          |
|          |
|          |
ENDCHAR
STARTCHAR Adieresis
ENCODING 196
BBX 10 18 0 -4
SWIDTH 556 0
DWIDTH 10 0
BITMAP
|  #   #   |
| ### ###  |
|  #   #   |
|          |
|    #     |
|    #     |
|   ###    |
|   # #    |
|   # #    |
|  #   #   |
|  #####   |
| #    ##  |
| #     #  |
+###   ### +
|          |
|          |
|          |
|          |
ENDCHAR
STARTCHAR Aring
ENCODING 197
BBX 10 18 0 -4
SWIDTH 556 0
DWIDTH 10 0
BITMAP
|   ###    |
|  #   #   |
|   ###    |
|          |
|    #     |
|    #     |
|   ###    |
|   # #    |
|   # #    |
|  #   #   |
|  #####   |
| #    ##  |
| #     #  |
+###   ### +
|          |
|          |
|          |
|          |
ENDCHAR
STARTCHAR AE
ENCODING 198
BBX 10 18 0 -4
SWIDTH 556 0
DWIDTH 10 0
BITMAP
|          |
|          |
|          |
|          |
|   ###### |
|    ##  # |
|   # #  # |
|   # #    |
|   # ###  |
|  #  #    |
|  ####    |
|  #  #  # |
| #   #  # |
+### ##### +
|          |
|          |
|          |
|          |
ENDCHAR
STARTCHAR Ccedilla
ENCODING 199
BBX 10 18 0 -4
SWIDTH 556 0
DWIDTH 10 0
BITMAP
|          |
|          |
|          |
|          |
|    ## #  |
|  ##  ##  |
|  #    #  |
| #     #  |
| #        |
| #        |
| #        |
| ##    #  |
|  ##  #   |
+   ###    +
|    #     |
|    ##    |
|     ##   |
|   ###    |
ENDCHAR
STARTCHAR Egrave
ENCODING 200
BBX 10 18 0 -4
SWIDTH 556 0
DWIDTH 10 0
BITMAP
|  ##      |
|    ##    |
|      #   |
|          |
|########  |
|  #    #  |
|  #    #  |
|  #  #    |
|  ####    |
|  #  #    |
|  #       |
|  #    #  |
|  #    #  |
+########  +
|          |
|          |
|          |
|          |
ENDCHAR
STARTCHAR Eacute
ENCODING 201
BBX 10 18 0 -4
SWIDTH 556 0
DWIDTH 10 0
BITMAP
|     ##   |
|   ##     |
|  #       |
|          |
|########  |
|  #    #  |
|  #    #  |
|  #  #    |
|  ####    |
|  #  #    |
|  #       |
|  #    #  |
|  #    #  |
+########  +
|          |
|          |
|          |
|          |
ENDCHAR
STARTCHAR Ecircumflex
ENCODING 202
BBX 10 18 0 -4
SWIDTH 556 0
DWIDTH 10 0
BITMAP
|    #     |
|   # #    |
|  #   #   |
|          |
|########  |
|  #    #  |
|  #    #  |
|  #  #    |
|  ####    |
|  #  #    |
|  #       |
|  #    #  |
|  #    #  |
+########  +
|          |
|          |
|          |
|          |
ENDCHAR
STARTCHAR Edieresis
ENCODING 203
BBX 10 18 0 -4
SWIDTH 556 0
DWIDTH 10 0
BITMAP
|  #   #   |
| ### ###  |
|  #   #   |
|          |
|########  |
|  #    #  |
|  #    #  |
|  #  #    |
|  ####    |
|  #  #    |
|  #       |
|  #    #  |
|  #    #  |
+########  +
|          |
|          |
|          |
|          |
ENDCHAR
STARTCHAR Igrave
ENCODING 204
BBX 10 18 0 -4
SWIDTH 556 0
DWIDTH 10 0
BITMAP
|  ##      |
|    ##    |
|      #   |
|          |
|  #####   |
|    #     |
|    #     |
|    #     |
|    #     |
|    #     |
|    #     |
|    #     |
|    #     |
+  #####   +
|          |
|          |
|          |
|          |
ENDCHAR
STARTCHAR Iacute
ENCODING 205
BBX 10 18 0 -4
SWIDTH 556 0
DWIDTH 10 0
BITMAP
|     ##   |
|   ##     |
|  #       |
|          |
|  #####   |
|    #     |
|    #     |
|    #     |
|    #     |
|    #     |
|    #     |
|    #     |
|    #     |
+  #####   +
|          |
|          |
|          |
|          |
ENDCHAR
STARTCHAR Icircumflex
ENCODING 206
BBX 10 18 0 -4
SWIDTH 556 0
DWIDTH 10 0
BITMAP
|    #     |
|   # #    |
|  #   #   |
|          |
|  #####   |
|    #     |
|    #     |
|    #     |
|    #     |
|    #     |
|    #     |
|    #     |
|    #     |
+  #####   +
|          |
|          |
|          |
|          |
ENDCHAR
STARTCHAR Idieresis
ENCODING 207
BBX 10 18 0 -4
SWIDTH 556 0
DWIDTH 10 0
BITMAP
|  #   #   |
| ### ###  |
|  #   #   |
|          |
|  #####   |
|    #     |
|    #     |
|    #     |
|    #     |
|    #     |
|    #     |
|    #     |
|    #     |
+  #####   +
|          |
|          |
|          |
|          |
ENDCHAR
STARTCHAR Eth
ENCODING 208
BBX 10 18 0 -4
SWIDTH 556 0
DWIDTH 10 0
BITMAP
|          |
|          |
|          |
|          |
|######    |
|  #  ##   |
|  #   ##  |
|  #    #  |
|  #    #  |
|#####  #  |
|  #    #  |
|  #   #   |
|  #  ##   |
+#####     +
|          |
|          |
|          |
|          |
ENDCHAR
STARTCHAR Ntilde
ENCODING 209
BBX 10 18 0 -4
SWIDTH 556 0
DWIDTH 10 0
BITMAP
|  ##   #  |
| # ### #  |
| #   ##   |
|          |
|##    ### |
| ##    #  |
| ###   #  |
| # #   #  |
| # ##  #  |
| #  ## #  |
| #   # #  |
| #   ###  |
| #    ##  |
+###    #  +
|          |
|          |
|          |
|          |
ENDCHAR
STARTCHAR Ograve
ENCODING 210
BBX 10 18 0 -4
SWIDTH 556 0
DWIDTH 10 0
BITMAP
|  ##      |
|    ##    |
|      #   |
|          |
|   ####   |
|  #   ##  |
| #     #  |
| #     #  |
| #     #  |
| #     #  |
| #     #  |
| #     #  |
| ##   #   |
+  ####    +
|          |
|          |
|          |
|          |
ENDCHAR
STARTCHAR Oacute
ENCODING 211
BBX 10 18 0 -4
SWIDTH 556 0
DWIDTH 10 0
BITMAP
|     ##   |
|   ##     |
|  #       |
|          |
|   ####   |
|  #   ##  |
| #     #  |
| #     #  |
| #     #  |
| #     #  |
| #     #  |
| #     #  |
| ##   #   |
+  ####    +
|          |
|          |
|          |
|          |
ENDCHAR
STARTCHAR Ocircumflex
ENCODING 212
BBX 10 18 0 -4
SWIDTH 556 0
DWIDTH 10 0
BITMAP
|    #     |
|   # #    |
|  #   #   |
|          |
|   ####   |
|  #   ##  |
| #     #  |
| #     #  |
| #     #  |
| #     #  |
| #     #  |
| #     #  |
| ##   #   |
+  ####    +
|          |
|          |
|          |
|          |
ENDCHAR
STARTCHAR Otilde
ENCODING 213
BBX 10 18 0 -4
SWIDTH 556 0
DWIDTH 10 0
BITMAP
|  ##   #  |
| # ### #  |
| #   ##   |
|          |
|   ####   |
|  #   ##  |
| #     #  |
| #     #  |
| #     #  |
| #     #  |
| #     #  |
| #     #  |
| ##   #   |
+  ####    +
|          |
|          |
|          |
|          |
ENDCHAR
STARTCHAR Odieresis
ENCODING 214
BBX 10 18 0 -4
SWIDTH 556 0
DWIDTH 10 0
BITMAP
|  #   #   |
| ### ###  |
|  #   #   |
|          |
|   ####   |
|  #   ##  |
| #     #  |
| #     #  |
| #     #  |
| #     #  |
| #     #  |
| #     #  |
| ##   #   |
+  ####    +
|          |
|          |
|          |
|          |
ENDCHAR
STARTCHAR multiply
ENCODING 215
BBX 10 18 0 -4
SWIDTH 556 0
DWIDTH 10 0
BITMAP
|          |
|          |
|          |
|          |
|          |
|          |
| #     #  |
|  #   #   |
|   # #    |
|    #     |
|   # #    |
|  #   #   |
| #     #  |
+          +
|          |
|          |
|          |
|          |
ENDCHAR
STARTCHAR Oslash
ENCODING 216
BBX 10 18 0 -4
SWIDTH 556 0
DWIDTH 10 0
BITMAP
|          |
|          |
|          |
|       #  |
|   ####   |
|  #   ##  |
| #   # #  |
| #   # #  |
| #  #  #  |
| #  #  #  |
| # #   #  |
| # #   #  |
| ##   #   |
+  ####    +
| #        |
|          |
|          |
|          |
ENDCHAR
STARTCHAR Ugrave
ENCODING 217
BBX 10 18 0 -4
SWIDTH 556 0
DWIDTH 10 0
BITMAP
|  ##      |
|    ##    |
|      #   |
|          |
|###   ### |
| #     #  |
| #     #  |
| #     #  |
| #     #  |
| #     #  |
| #     #  |
| #     #  |
| ##   #   |
+  ####    +
|          |
|          |
|          |
|          |
ENDCHAR
STARTCHAR Uacute
ENCODING 218
BBX 10 18 0 -4
SWIDTH 556 0
DWIDTH 10 0
BITMAP
|     ##   |
|   ##     |
|  #       |
|          |
|###   ### |
| #     #  |
| #     #  |
| #     #  |
| #     #  |
| #     #  |
| #     #  |
| #     #  |
| ##   #   |
+  ####    +
|          |
|          |
|          |
|          |
ENDCHAR
STARTCHAR Ucircumflex
ENCODING 219
BBX 10 18 0 -4
SWIDTH 556 0
DWIDTH 10 0
BITMAP
|    #     |
|   # #    |
|  #   #   |
|          |
|###   ### |
| #     #  |
| #     #  |
| #     #  |
| #     #  |
| #     #  |
| #     #  |
| #     #  |
| ##   #   |
+  ####    +
|          |
|          |
|          |
|          |
ENDCHAR
STARTCHAR Udieresis
ENCODING 220
BBX 10 18 0 -4
SWIDTH 556 0
DWIDTH 10 0
BITMAP
|  #   #   |
| ### ###  |
|  #   #   |
|          |
|###   ### |
| #     #  |
| #     #  |
| #     #  |
| #     #  |
| #     #  |
| #     #  |
| #     #  |
| ##   #   |
+  ####    +
|          |
|          |
|          |
|          |
ENDCHAR
STARTCHAR Yacute
ENCODING 221
BBX 10 18 0 -4
SWIDTH 556 0
DWIDTH 10 0
BITMAP
|     ##   |
|   ##     |
|  #       |
|          |
|###   ### |
| #     #  |
| ##   #   |
|  ##  #   |
|   # #    |
|   ##     |
|    #     |
|    #     |
|    #     |
+  #####   +
|          |
|          |
|          |
|          |
ENDCHAR
STARTCHAR Thorn
ENCODING 222
BBX 10 18 0 -4
SWIDTH 556 0
DWIDTH 10 0
BITMAP
|          |
|          |
|          |
|          |
|#####     |
|  #       |
|  #####   |
|  #   ##  |
|  #    #  |
|  #    #  |
|  #   #   |
|  ####    |
|  #       |
+#####     +
|          |
|          |
|          |
|          |
ENDCHAR
STARTCHAR germandbls
ENCODING 223
BBX 10 18 0 -4
SWIDTH 556 0
DWIDTH 10 0
BITMAP
|          |
|          |
|          |
|          |
|    ###   |
|   #  ##  |
|  #    #  |
|  #   #   |
|  #  ###  |
|  #    ## |
|  #     # |
|  #     # |
|  # #  #  |
+###  ##   +
|          |
|          |
|          |
|          |
ENDCHAR
STARTCHAR agrave
ENCODING 224
BBX 10 18 0 -4
SWIDTH 556 0
DWIDTH 10 0
BITMAP
|          |
|          |
|  ##      |
|    ##    |
|      #   |
|          |
|   ####   |
|  #   ##  |
|       #  |
|   #####  |
|  #    #  |
| #     #  |
| ##   ##  |
+  ####  # +
|          |
|          |
|          |
|          |
ENDCHAR
STARTCHAR aacute
ENCODING 225
BBX 10 18 0 -4
SWIDTH 556 0
DWIDTH 10 0
BITMAP
|          |
|          |
|     ##   |
|   ##     |
|  #       |
|          |
|   ####   |
|  #   ##  |
|       #  |
|   #####  |
|  #    #  |
| #     #  |
| ##   ##  |
+  ####  # +
|          |
|          |
|          |
|          |
ENDCHAR
STARTCHAR acircumflex
ENCODING 226
BBX 10 18 0 -4
SWIDTH 556 0
DWIDTH 10 0
BITMAP
|          |
|          |
|    #     |
|   # #    |
|  #   #   |
|          |
|   ####   |
|  #   ##  |
|       #  |
|   #####  |
|  #    #  |
| #     #  |
| ##   ##  |
+  ####  # +
|          |
|          |
|          |
|          |
ENDCHAR
STARTCHAR atilde
ENCODING 227
BBX 10 18 0 -4
SWIDTH 556 0
DWIDTH 10 0
BITMAP
|          |
|          |
|  ##   #  |
| # ### #  |
| #   ##   |
|          |
|   ####   |
|  #   ##  |
|       #  |
|   #####  |
|  #    #  |
| #     #  |
| ##   ##  |
+  ####  # +
|          |
|          |
|          |
|          |
ENDCHAR
STARTCHAR adieresis
ENCODING 228
BBX 10 18 0 -4
SWIDTH 556 0
DWIDTH 10 0
BITMAP
|          |
|          |
|  #   #   |
| ### ###  |
|  #   #   |
|          |
|   ####   |
|  #   ##  |
|       #  |
|   #####  |
|  #    #  |
| #     #  |
| ##   ##  |
+  ####  # +
|          |
|          |
|          |
|          |
ENDCHAR
STARTCHAR aring
ENCODING 229
BBX 10 18 0 -4
SWIDTH 556 0
DWIDTH 10 0
BITMAP
|          |
|   ###    |
|  #   #   |
|  #   #   |
|   ###    |
|          |
|   ####   |
|  #   ##  |
|       #  |
|   #####  |
|  #    #  |
| #     #  |
| ##   ##  |
+  ####  # +
|          |
|          |
|          |
|          |
ENDCHAR
STARTCHAR ae
ENCODING 230
BBX 10 18 0 -4
SWIDTH 556 0
DWIDTH 10 0
BITMAP
|          |
|          |
|          |
|          |
|          |
|          |
|  ## ###  |
| # ##  ## |
|    #   # |
|  ######  |
| #  #     |
|#   #     |
|##  ##  # |
+ ### ###  +
|          |
|          |
|          |
|          |
ENDCHAR
STARTCHAR ccedilla
ENCODING 231
BBX 10 18 0 -4
SWIDTH 556 0
DWIDTH 10 0
BITMAP
|          |
|          |
|          |
|          |
|          |
|          |
|   ####   |
|  #   ##  |
| #     #  |
| #        |
| #        |
| #        |
| ##    #  |
+  #####   +
|    #     |
|    ##    |
|     ##   |
|   ###    |
ENDCHAR
STARTCHAR egrave
ENCODING 232
BBX 10 18 0 -4
SWIDTH 556 0
DWIDTH 10 0
BITMAP
|          |
|          |
|  ##      |
|    ##    |
|      #   |
|          |
|   ####   |
|  #   ##  |
| #     #  |
| ######   |
| #        |
| #        |
| ##    #  |
+  #####   +
|          |
|          |
|          |
|          |
ENDCHAR
STARTCHAR eacute
ENCODING 233
BBX 10 18 0 -4
SWIDTH 556 0
DWIDTH 10 0
BITMAP
|          |
|          |
|     ##   |
|   ##     |
|  #       |
|          |
|   ####   |
|  #   ##  |
| #     #  |
| ######   |
| #        |
| #        |
| ##    #  |
+  #####   +
|          |
|          |
|          |
|          |
ENDCHAR
STARTCHAR ecircumflex
ENCODING 234
BBX 10 18 0 -4
SWIDTH 556 0
DWIDTH 10 0
BITMAP
|          |
|          |
|    #     |
|   # #    |
|  #   #   |
|          |
|   ####   |
|  #   ##  |
| #     #  |
| ######   |
| #        |
| #        |
| ##    #  |
+  #####   +
|          |
|          |
|          |
|          |
ENDCHAR
STARTCHAR edieresis
ENCODING 235
BBX 10 18 0 -4
SWIDTH 556 0
DWIDTH 10 0
BITMAP
|          |
|          |
|  #   #   |
| ### ###  |
|  #   #   |
|          |
|   ####   |
|  #   ##  |
| #     #  |
| ######   |
| #        |
| #        |
| ##    #  |
+  #####   +
|          |
|          |
|          |
|          |
ENDCHAR
STARTCHAR igrave
ENCODING 236
BBX 10 18 0 -4
SWIDTH 556 0
DWIDTH 10 0
BITMAP
|          |
|          |
| ##       |
|   ##     |
|     #    |
|          |
|  ###     |
|    #     |
|    #     |
|    #     |
|    #     |
|    #     |
|    #     |
+ #######  +
|          |
|          |
|          |
|          |
ENDCHAR
STARTCHAR iacute
ENCODING 237
BBX 10 18 0 -4
SWIDTH 556 0
DWIDTH 10 0
BITMAP
|          |
|          |
|    ##    |
|  ##      |
| #        |
|          |
|  ###     |
|    #     |
|    #     |
|    #     |
|    #     |
|    #     |
|    #     |
+ #######  +
|          |
|          |
|          |
|          |
ENDCHAR
STARTCHAR icircumflex
ENCODING 238
BBX 10 18 0 -4
SWIDTH 556 0
DWIDTH 10 0
BITMAP
|          |
|          |
|   #      |
|  # #     |
| #   #    |
|          |
|  ###     |
|    #     |
|    #     |
|    #     |
|    #     |
|    #     |
|    #     |
+ #######  +
|          |
|          |
|          |
|          |
ENDCHAR
STARTCHAR idieresis
ENCODING 239
BBX 10 18 0 -4
SWIDTH 556 0
DWIDTH 10 0
BITMAP
|          |
|          |
| #   #    |
|### ###   |
| #   #    |
|          |
|  ###     |
|    #     |
|    #     |
|    #     |
|    #     |
|    #     |
|    #     |
+ #######  +
|          |
|          |
|          |
|          |
ENDCHAR
STARTCHAR eth
ENCODING 240
BBX 10 18 0 -4
SWIDTH 556 0
DWIDTH 10 0
BITMAP
|          |
|          |
|  #   #   |
|  ## ##   |
|   ##     |
| ## ##    |
| #   ##   |
|   ####   |
|  #   ##  |
| #     #  |
| #     #  |
| #     #  |
| ##   #   |
+  ####    +
|          |
|          |
|          |
|          |
ENDCHAR
STARTCHAR ntilde
ENCODING 241
BBX 10 18 0 -4
SWIDTH 556 0
DWIDTH 10 0
BITMAP
|          |
|          |
|  ##   #  |
| # ### #  |
| #   ##   |
|          |
|##  ###   |
| # #  ##  |
| ##    #  |
| #     #  |
| #     #  |
| #     #  |
| #     #  |
+###   ### +
|          |
|          |
|          |
|          |
ENDCHAR
STARTCHAR ograve
ENCODING 242
BBX 10 18 0 -4
SWIDTH 556 0
DWIDTH 10 0
BITMAP
|          |
|          |
|  ##      |
|    ##    |
|      #   |
|          |
|   ####   |
|  #   ##  |
| #     #  |
| #     #  |
| #     #  |
| #     #  |
| ##   #   |
+  ####    +
|          |
|          |
|          |
|          |
ENDCHAR
STARTCHAR oacute
ENCODING 243
BBX 10 18 0 -4
SWIDTH 556 0
DWIDTH 10 0
BITMAP
|          |
|          |
|     ##   |
|   ##     |
|  #       |
|          |
|   ####   |
|  #   ##  |
| #     #  |
| #     #  |
| #     #  |
| #     #  |
| ##   #   |
+  ####    +
|          |
|          |
|          |
|          |
ENDCHAR
STARTCHAR ocircumflex
ENCODING 244
BBX 10 18 0 -4
SWIDTH 556 0
DWIDTH 10 0
BITMAP
|          |
|          |
|    #     |
|   # #    |
|  #   #   |
|          |
|   ####   |
|  #   ##  |
| #     #  |
| #     #  |
| #     #  |
| #     #  |
| ##   #   |
+  ####    +
|          |
|          |
|          |
|          |
ENDCHAR
STARTCHAR otilde
ENCODING 245
BBX 10 18 0 -4
SWIDTH 556 0
DWIDTH 10 0
BITMAP
|          |
|          |
|  ##   #  |
| # ### #  |
| #   ##   |
|          |
|   ####   |
|  #   ##  |
| #     #  |
| #     #  |
| #     #  |
| #     #  |
| ##   #   |
+  ####    +
|          |
|          |
|          |
|          |
ENDCHAR
STARTCHAR odieresis
ENCODING 246
BBX 10 18 0 -4
SWIDTH 556 0
DWIDTH 10 0
BITMAP
|          |
|          |
|  #   #   |
| ### ###  |
|  #   #   |
|          |
|   ####   |
|  #   ##  |
| #     #  |
| #     #  |
| #     #  |
| #     #  |
| ##   #   |
+  ####    +
|          |
|          |
|          |
|          |
ENDCHAR
STARTCHAR divide
ENCODING 247
BBX 10 18 0 -4
SWIDTH 556 0
DWIDTH 10 0
BITMAP
|          |
|          |
|          |
|          |
|          |
|    #     |
|   ###    |
|    #     |
|          |
| #######  |
|          |
|    #     |
|   ###    |
+    #     +
|          |
|          |
|          |
|          |
ENDCHAR
STARTCHAR oslash
ENCODING 248
BBX 10 18 0 -4
SWIDTH 556 0
DWIDTH 10 0
BITMAP
|          |
|          |
|          |
|          |
|          |
|       #  |
|   ####   |
|  #   ##  |
| #   # #  |
| #  #  #  |
| #  #  #  |
| # #   #  |
| ##   #   |
+  ####    +
| #        |
|          |
|          |
|          |
ENDCHAR
STARTCHAR ugrave
ENCODING 249
BBX 10 18 0 -4
SWIDTH 556 0
DWIDTH 10 0
BITMAP
|          |
|          |
|  ##      |
|    ##    |
|      #   |
|          |
|##    ##  |
| #     #  |
| #     #  |
| #     #  |
| #     #  |
| #    ##  |
| ##  # #  |
+  ###  ## +
|          |
|          |
|          |
|          |
ENDCHAR
STARTCHAR uacute
ENCODING 250
BBX 10 18 0 -4
SWIDTH 556 0
DWIDTH 10 0
BITMAP
|          |
|          |
|     ##   |
|   ##     |
|  #       |
|          |
|##    ##  |
| #     #  |
| #     #  |
| #     #  |
| #     #  |
| #    ##  |
| ##  # #  |
+  ###  ## +
|          |
|          |
|          |
|          |
ENDCHAR
STARTCHAR ucircumflex
ENCODING 251
BBX 10 18 0 -4
SWIDTH 556 0
DWIDTH 10 0
BITMAP
|          |
|          |
|    #     |
|   # #    |
|  #   #   |
|          |
|##    ##  |
| #     #  |
| #     #  |
| #     #  |
| #     #  |
| #    ##  |
| ##  # #  |
+  ###  ## +
|          |
|          |
|          |
|          |
ENDCHAR
STARTCHAR udieresis
ENCODING 252
BBX 10 18 0 -4
SWIDTH 556 0
DWIDTH 10 0
BITMAP
|          |
|          |
|  #   #   |
| ### ###  |
|  #   #   |
|          |
|##    ##  |
| #     #  |
| #     #  |
| #     #  |
| #     #  |
| #    ##  |
| ##  # #  |
+  ###  ## +
|          |
|          |
|          |
|          |
ENDCHAR
STARTCHAR yacute
ENCODING 253
BBX 10 18 0 -4
SWIDTH 556 0
DWIDTH 10 0
BITMAP
|          |
|          |
|     ##   |
|   ##     |
|  #       |
|          |
|###   ### |
| #     #  |
| ##   #   |
|  #   #   |
|  ## #    |
|   # #    |
|   ##     |
+    #     +
|   #      |
|###       |
| #        |
|          |
ENDCHAR
STARTCHAR thorn
ENCODING 254
BBX 10 18 0 -4
SWIDTH 556 0
DWIDTH 10 0
BITMAP
|          |
|          |
|          |
|##        |
| #        |
| #        |
| #  ###   |
| # #  ##  |
| ##    #  |
| #     #  |
| #     #  |
| #     #  |
| ##   #   |
+ # ###    +
| #        |
| #        |
|####      |
|          |
ENDCHAR
STARTCHAR ydieresis
ENCODING 255
BBX 10 18 0 -4
SWIDTH 556 0
DWIDTH 10 0
BITMAP
|          |
|          |
|  #   #   |
| ### ###  |
|  #   #   |
|          |
|###   ### |
| #     #  |
| ##   #   |
|  #   #   |
|  ## #    |
|   # #    |
|   ##     |
+    #     +
|   #      |
|###       |
| #        |
|          |
ENDCHAR
ENDFONT
